<mxfile host="65bd71144e" scale="5" border="10">
    <diagram id="mpP8sGz9FHktHrAXvyJB" name="ページ1">
        <mxGraphModel dx="788" dy="853" grid="1" gridSize="10" guides="1" tooltips="1" connect="1" arrows="1" fold="1" page="1" pageScale="1" pageWidth="1169" pageHeight="827" background="#ffffff" math="0" shadow="0">
            <root>
                <mxCell id="0"/>
                <mxCell id="1" parent="0"/>
                <mxCell id="52" style="edgeStyle=orthogonalEdgeStyle;html=1;entryX=-0.003;entryY=0.494;entryDx=0;entryDy=0;entryPerimeter=0;rounded=0;endArrow=none;endFill=0;" parent="1" source="48" target="50" edge="1">
                    <mxGeometry relative="1" as="geometry">
                        <Array as="points">
                            <mxPoint x="55" y="170"/>
                        </Array>
                    </mxGeometry>
                </mxCell>
                <mxCell id="48" value=": User" style="shape=umlActor;verticalLabelPosition=bottom;verticalAlign=top;html=1;outlineConnect=0;" parent="1" vertex="1">
                    <mxGeometry x="40" y="383" width="30" height="60" as="geometry"/>
                </mxCell>
                <mxCell id="56" style="rounded=0;html=1;endArrow=none;endFill=0;entryX=0.857;entryY=0.109;entryDx=0;entryDy=0;entryPerimeter=0;" parent="1" source="58" target="54" edge="1">
                    <mxGeometry relative="1" as="geometry"/>
                </mxCell>
                <mxCell id="59" style="edgeStyle=none;html=1;rounded=0;endArrow=none;endFill=0;" parent="1" source="50" target="58" edge="1">
                    <mxGeometry relative="1" as="geometry"/>
                </mxCell>
                <mxCell id="50" value=": メイン画面" style="shape=umlBoundary;whiteSpace=wrap;html=1;" parent="1" vertex="1">
                    <mxGeometry x="368" y="131" width="100" height="80" as="geometry"/>
                </mxCell>
                <mxCell id="53" value="1 : 過去の日記の表示を指示する（）" style="html=1;verticalAlign=bottom;endArrow=block;rounded=0;" parent="1" edge="1">
                    <mxGeometry y="10" width="80" relative="1" as="geometry">
                        <mxPoint x="120" y="159.9999999999999" as="sourcePoint"/>
                        <mxPoint x="320" y="159.9999999999999" as="targetPoint"/>
                        <mxPoint as="offset"/>
                    </mxGeometry>
                </mxCell>
                <mxCell id="54" value=": 過去の日記を表示する画面" style="shape=umlBoundary;whiteSpace=wrap;html=1;" parent="1" vertex="1">
                    <mxGeometry x="368" y="373" width="100" height="80" as="geometry"/>
                </mxCell>
                <mxCell id="57" value="5 : 表示する" style="html=1;verticalAlign=bottom;endArrow=block;rounded=0;" parent="1" edge="1">
                    <mxGeometry x="0.3618" y="-24" width="80" relative="1" as="geometry">
                        <mxPoint x="600" y="240" as="sourcePoint"/>
                        <mxPoint x="520" y="310" as="targetPoint"/>
                        <mxPoint as="offset"/>
                    </mxGeometry>
                </mxCell>
                <mxCell id="61" style="edgeStyle=none;rounded=0;html=1;endArrow=none;endFill=0;" parent="1" source="58" target="60" edge="1">
                    <mxGeometry relative="1" as="geometry"/>
                </mxCell>
                <mxCell id="58" value=": 日記&lt;br&gt;記録管理" style="ellipse;shape=umlControl;whiteSpace=wrap;html=1;" parent="1" vertex="1">
                    <mxGeometry x="670" y="131" width="70" height="80" as="geometry"/>
                </mxCell>
                <mxCell id="60" value=": タイムライン" style="ellipse;shape=umlEntity;whiteSpace=wrap;html=1;" parent="1" vertex="1">
                    <mxGeometry x="665" y="373" width="80" height="80" as="geometry"/>
                </mxCell>
                <mxCell id="62" value="3 : 日記の一覧を取得（）" style="html=1;verticalAlign=bottom;endArrow=block;rounded=0;" parent="1" edge="1">
                    <mxGeometry x="0.0909" y="70" width="80" relative="1" as="geometry">
                        <mxPoint x="720" y="240" as="sourcePoint"/>
                        <mxPoint x="720" y="350" as="targetPoint"/>
                        <mxPoint as="offset"/>
                    </mxGeometry>
                </mxCell>
                <mxCell id="63" value="2 :&amp;nbsp; 記録された日記を確認する" style="html=1;verticalAlign=bottom;endArrow=block;rounded=0;" parent="1" edge="1">
                    <mxGeometry x="0.0667" y="10" width="80" relative="1" as="geometry">
                        <mxPoint x="490" y="160" as="sourcePoint"/>
                        <mxPoint x="640" y="160" as="targetPoint"/>
                        <mxPoint as="offset"/>
                    </mxGeometry>
                </mxCell>
                <mxCell id="65" value="4 : 日記一覧を返す&lt;br&gt;（diaries[]）" style="html=1;verticalAlign=bottom;endArrow=open;dashed=1;endSize=8;rounded=0;" parent="1" edge="1">
                    <mxGeometry x="-0.6364" y="70" relative="1" as="geometry">
                        <mxPoint x="690" y="350" as="sourcePoint"/>
                        <mxPoint x="690" y="240.0000000000001" as="targetPoint"/>
                        <mxPoint as="offset"/>
                    </mxGeometry>
                </mxCell>
            </root>
        </mxGraphModel>
    </diagram>
</mxfile>